<?xml version="1.0" encoding="utf-8"?>
<!-- Generator: Adobe Illustrator 23.0.6, SVG Export Plug-In . SVG Version: 6.00 Build 0)  -->
<svg version="1.1" id="Layer_1" xmlns="http://www.w3.org/2000/svg" xmlns:xlink="http://www.w3.org/1999/xlink" x="0px" y="0px"
	 viewBox="0 0 274 264" style="enable-background:new 0 0 274 264;" xml:space="preserve">
<style type="text/css">
	.st0{fill:#FFFFFF;}
</style>
<g>
	<path d="M16.34,235.9c-0.98,0-1.79,0.26-2.42,0.78c-0.63,0.52-0.94,1.27-0.94,2.25s0.29,1.77,0.87,2.37
		c0.58,0.6,1.34,1.06,2.28,1.38c0.94,0.32,1.98,0.63,3.13,0.92c1.15,0.29,2.29,0.64,3.43,1.06c1.13,0.41,2.17,0.93,3.1,1.54
		c0.94,0.61,1.69,1.48,2.28,2.6c0.58,1.12,0.87,2.46,0.87,4.02c0,2.73-1.11,5.07-3.33,7.02c-2.22,1.95-5.15,2.92-8.79,2.92
		c-3.63,0-6.56-0.87-8.79-2.62c-2.22-1.75-3.34-4.23-3.34-7.45h8.37c0.21,2.58,1.53,3.86,3.96,3.86c1.13,0,2.02-0.3,2.67-0.9
		c0.64-0.6,0.97-1.36,0.97-2.28c0-0.92-0.29-1.67-0.87-2.25c-0.58-0.58-1.34-1.04-2.28-1.38c-0.94-0.34-1.98-0.65-3.13-0.94
		s-2.29-0.65-3.43-1.08c-1.14-0.43-2.17-0.94-3.1-1.54c-0.94-0.6-1.69-1.46-2.28-2.58c-0.58-1.12-0.87-2.45-0.87-3.98
		c0-3,1.12-5.41,3.36-7.22c2.24-1.81,5.1-2.71,8.58-2.71s6.29,0.79,8.44,2.37c2.15,1.58,3.27,4.07,3.36,7.47h-8.56
		c-0.12-1.17-0.5-2.06-1.13-2.69C18.13,236.21,17.32,235.9,16.34,235.9z"/>
	<path d="M45.83,236.13v-5.98h25.48v5.98h-8.83v26.31h-7.87v-26.31H45.83z"/>
	<path d="M91.8,258.07C88.6,254.94,87,250.98,87,246.2s1.6-8.73,4.81-11.84c3.2-3.11,7.13-4.67,11.78-4.67s8.56,1.56,11.73,4.67
		c3.17,3.11,4.76,7.06,4.76,11.84s-1.6,8.74-4.78,11.87c-3.19,3.13-7.1,4.69-11.73,4.69C98.93,262.76,95.01,261.2,91.8,258.07z
		 M109.74,252.96c1.55-1.69,2.32-3.94,2.32-6.76c0-2.82-0.77-5.08-2.32-6.76c-1.55-1.69-3.62-2.53-6.21-2.53
		c-2.59,0-4.66,0.84-6.21,2.53c-1.55,1.69-2.32,3.94-2.32,6.76c0,2.82,0.77,5.08,2.32,6.76c1.55,1.69,3.62,2.53,6.21,2.53
		C106.13,255.49,108.2,254.65,109.74,252.96z"/>
	<path d="M145.88,249.88v12.56h-7.87v-32.29h12.74c3.74,0,6.65,0.97,8.74,2.9c2.09,1.93,3.13,4.26,3.13,6.99
		c0,1.87-0.57,3.7-1.7,5.47c-1.14,1.78-2.99,3.04-5.57,3.77l7.91,13.16h-9.2l-7.27-12.56H145.88z M145.88,236.13v7.77h4.88
		c1.2,0,2.14-0.35,2.83-1.06c0.69-0.71,1.03-1.63,1.03-2.78s-0.35-2.09-1.06-2.83c-0.71-0.74-1.64-1.1-2.81-1.1H145.88z"/>
	<path d="M181.62,262.44v-32.29h7.87v32.29H181.62z"/>
	<path d="M228.81,230.05v5.98h-11.68v6.95h10.3v5.98h-10.3v7.5h11.68v5.98h-19.55v-32.38H228.81z"/>
	<path d="M259.4,235.9c-0.98,0-1.79,0.26-2.42,0.78c-0.63,0.52-0.94,1.27-0.94,2.25s0.29,1.77,0.87,2.37
		c0.58,0.6,1.34,1.06,2.28,1.38c0.93,0.32,1.98,0.63,3.13,0.92c1.15,0.29,2.29,0.64,3.43,1.06c1.13,0.41,2.17,0.93,3.1,1.54
		c0.94,0.61,1.69,1.48,2.28,2.6c0.58,1.12,0.87,2.46,0.87,4.02c0,2.73-1.11,5.07-3.33,7.02c-2.22,1.95-5.15,2.92-8.79,2.92
		s-6.56-0.87-8.79-2.62s-3.33-4.23-3.33-7.45h8.37c0.21,2.58,1.53,3.86,3.96,3.86c1.13,0,2.02-0.3,2.67-0.9
		c0.64-0.6,0.97-1.36,0.97-2.28c0-0.92-0.29-1.67-0.87-2.25c-0.58-0.58-1.34-1.04-2.28-1.38c-0.94-0.34-1.98-0.65-3.13-0.94
		c-1.15-0.29-2.29-0.65-3.43-1.08s-2.17-0.94-3.1-1.54c-0.94-0.6-1.7-1.46-2.28-2.58c-0.58-1.12-0.87-2.45-0.87-3.98
		c0-3,1.12-5.41,3.36-7.22c2.24-1.81,5.1-2.71,8.58-2.71c3.48,0,6.29,0.79,8.44,2.37c2.15,1.58,3.27,4.07,3.36,7.47h-8.56
		c-0.12-1.17-0.5-2.06-1.13-2.69C261.19,236.21,260.39,235.9,259.4,235.9z"/>
</g>
<g>
	<path d="M1.94,127.36V1.66h51.3v125.7c0,12.6,3.1,22.3,9.3,29.1c6.2,6.8,15.3,10.2,27.3,10.2s21.2-3.4,27.6-10.2
		c6.4-6.8,9.6-16.5,9.6-29.1V1.66h51.3v125.7c0,18.6-4.35,34.65-13.05,48.15s-19.7,23.35-33,29.55c-13.3,6.2-27.75,9.3-43.35,9.3
		c-24.4,0-45-7.6-61.8-22.8C10.34,176.36,1.94,154.96,1.94,127.36z"/>
</g>
<polygon points="272.49,1.62 214.29,1.62 178.29,63.12 178.27,63.08 178.27,155.73 213.99,212.22 272.19,212.22 205.89,107.22 "/>
<polygon class="st0" points="84.04,0.62 142.24,0.62 178.24,63.12 178.27,63.08 178.27,155.73 139.54,215.22 81.34,215.22 
	150.64,107.22 "/>
</svg>
